<svg width="16" height="22" viewBox="0 0 16 24" fill="none" xmlns="http://www.w3.org/2000/svg">
<path d="M8 0C11.0938 0 13.6875 1.07812 15.7812 3.23438L14.375 4.64062C12.625 2.89063 10.5 2.01562 8 2.01562C5.5 2.01562 3.375 2.89063 1.625 4.64062L0.21875 3.23438C2.375 1.07812 4.96875 0 8 0ZM3.03125 6.04688C4.40625 4.67188 6.0625 3.98438 8 3.98438C9.9375 3.98438 11.5938 4.67188 12.9688 6.04688L11.5625 7.45312C11.1562 7.04687 10.5938 6.70312 9.875 6.42188C9.1875 6.14062 8.5625 6 8 6C7.4375 6 6.79688 6.14062 6.07812 6.42188C5.39062 6.70312 4.84375 7.04687 4.4375 7.45312L3.03125 6.04688ZM6.59375 14.3906C7 14.7969 7.46875 15 8 15C8.53125 15 9 14.7969 9.40625 14.3906C9.8125 13.9844 10.0156 13.5156 10.0156 12.9844C10.0156 12.4531 9.8125 12 9.40625 11.625C9 11.2188 8.53125 11.0156 8 11.0156C7.46875 11.0156 7 11.2188 6.59375 11.625C6.1875 12 5.98438 12.4531 5.98438 12.9844C5.98438 13.5156 6.1875 13.9844 6.59375 14.3906ZM11 9C11.2812 9 11.5156 9.09375 11.7031 9.28125C11.8906 9.46875 11.9844 9.70312 11.9844 9.98438V21.9844C11.9844 22.2656 11.8906 22.5156 11.7031 22.7344C11.5156 22.9219 11.2812 23.0156 11 23.0156H5C4.71875 23.0156 4.48438 22.9219 4.29688 22.7344C4.10938 22.5156 4.01562 22.2656 4.01562 21.9844V9.98438C4.01562 9.70312 4.10938 9.46875 4.29688 9.28125C4.48438 9.09375 4.71875 9 5 9H11Z" fill="#052554"/>
</svg>
