<svg width="121" height="39" viewBox="0 0 121 39" fill="none" xmlns="http://www.w3.org/2000/svg">
<g clip-path="url(#clip0_1277_1011)">
<path d="M10.9052 36.8007C8.18435 36.8007 6.03127 36.3361 4.44596 35.3925C2.86761 34.4637 1.66212 33.0284 1.032 31.3278C0.301187 29.2994 -0.0486097 27.1572 -0.000295046 25.0056V11.708C-0.0550679 9.55834 0.294929 7.41729 1.032 5.39308C1.66111 3.71526 2.85916 2.30258 4.42384 1.39363C6.02144 0.464545 8.18189 0 10.9052 0C13.6555 0 15.8381 0.464545 17.4382 1.39363C19.017 2.29571 20.2289 3.7093 20.8669 5.39308C21.6069 7.41653 21.957 9.55814 21.8992 11.708V25.0056C21.9511 27.1574 21.6012 29.3003 20.8669 31.3278C20.2335 33.0309 19.0224 34.4667 17.4382 35.3925C15.8381 36.3361 13.6555 36.8007 10.9052 36.8007ZM10.9052 31.1898C11.2392 31.2193 11.5757 31.1796 11.8932 31.0733C12.2107 30.967 12.502 30.7966 12.7486 30.5729C13.1428 30.1227 13.3985 29.5713 13.4859 28.9833C13.6074 28.327 13.6691 27.6614 13.6703 26.9944V9.7627C13.6705 9.0884 13.6088 8.41546 13.4859 7.75209C13.3957 7.17136 13.14 6.62772 12.7486 6.18426C12.502 5.96054 12.2107 5.79007 11.8932 5.68382C11.5757 5.57756 11.2392 5.53787 10.9052 5.56728C10.5862 5.54268 10.2654 5.58495 9.96422 5.6913C9.66299 5.79765 9.38809 5.96566 9.15766 6.18426C8.76414 6.62639 8.50817 7.17066 8.4203 7.75209C8.30001 8.41569 8.24078 9.08862 8.24334 9.7627V26.9944C8.24216 27.6603 8.29393 28.3253 8.39818 28.9833C8.48028 29.5728 8.73671 30.1256 9.13554 30.5729C9.36824 30.7959 9.64616 30.9681 9.9511 31.0782C10.2561 31.1883 10.5812 31.2337 10.9052 31.2116V31.1898Z" fill="#052554"/>
<path d="M26.7949 36.2926V0.486328H43.1347V5.87941H34.8321V14.7566H41.1586V20.2367H34.8321V30.9285H43.2232V36.2926H26.7949Z" fill="#052554"/>
<path d="M46.8584 36.2926V0.486328H63.1908V5.87941H54.8882V14.7566H61.2V20.2367H54.8882V30.9285H63.2867V36.2926H46.8584Z" fill="#052554"/>
<path d="M75.2468 9.76999C74.7831 9.78804 74.3242 9.67196 73.9269 9.4361C73.5764 9.21121 73.2997 8.89097 73.1305 8.51426C72.9419 8.08201 72.8345 7.61966 72.8135 7.14966L73.949 6.84481C73.9706 7.15575 74.0199 7.46421 74.0965 7.76664C74.1656 8.036 74.2996 8.28499 74.4873 8.49249C74.5842 8.58645 74.6996 8.66 74.8264 8.70867C74.9531 8.75733 75.0886 8.7801 75.2246 8.77557C75.3604 8.78419 75.4965 8.76403 75.6237 8.71645C75.7509 8.66886 75.8663 8.59497 75.962 8.49975C76.1463 8.28033 76.2386 7.99995 76.2201 7.71583C76.2405 7.37088 76.1446 7.02895 75.9472 6.74319C75.727 6.47735 75.4799 6.23416 75.2099 6.01734L73.7352 4.65273C73.4548 4.41962 73.2285 4.13003 73.0715 3.80349C72.9143 3.44403 72.8389 3.05509 72.8503 2.6639C72.8338 2.38167 72.877 2.09914 72.9773 1.83424C73.0776 1.56934 73.2327 1.32785 73.4329 1.1251C73.8582 0.748702 74.4174 0.553029 74.9887 0.580708C75.3142 0.575186 75.6384 0.624278 75.9472 0.725878C76.2101 0.811327 76.4479 0.958282 76.6404 1.15413C76.8346 1.36526 76.9849 1.61187 77.0828 1.87998C77.1951 2.21192 77.2693 2.55522 77.304 2.90343L76.2127 3.19377C76.1942 2.91932 76.1498 2.64716 76.08 2.38082C76.0256 2.14978 75.9023 1.93999 75.726 1.77836C75.5136 1.62056 75.2548 1.5352 74.9887 1.5352C74.7226 1.5352 74.4637 1.62056 74.2513 1.77836C74.1595 1.87537 74.0886 1.98973 74.043 2.11449C73.9974 2.23926 73.9779 2.37184 73.9859 2.50421C73.9774 2.73779 74.028 2.96978 74.1333 3.17926C74.2467 3.38932 74.4022 3.57452 74.5905 3.72364L76.1316 5.08099C76.4891 5.38661 76.7974 5.74394 77.0459 6.14073C77.3141 6.57804 77.4497 7.08175 77.4367 7.59243C77.45 7.99259 77.3532 8.38884 77.1565 8.73928C76.9882 9.04706 76.7318 9.29944 76.4191 9.46513C76.0623 9.66619 75.6579 9.77132 75.2468 9.76999Z" fill="#052554"/>
<path d="M78.5059 9.67572V0.660645H79.7594V9.67572H78.5059Z" fill="#052554"/>
<path d="M83.4015 9.76995C82.9378 9.78886 82.4787 9.67272 82.0817 9.43606C81.7273 9.2155 81.4495 8.89397 81.2853 8.51423C81.0931 8.08313 80.9855 7.62011 80.9683 7.14963L82.0964 6.84477C82.1168 7.15634 82.1687 7.46514 82.2513 7.7666C82.3172 8.03715 82.4516 8.28686 82.6421 8.49245C82.7385 8.58712 82.8538 8.66113 82.9807 8.70984C83.1076 8.75856 83.2433 8.78092 83.3794 8.77553C83.5152 8.78368 83.6511 8.7633 83.7783 8.71574C83.9054 8.66819 84.0208 8.59455 84.1168 8.49971C84.2984 8.27922 84.3881 7.99895 84.3675 7.71579C84.3836 7.36799 84.2853 7.02436 84.0873 6.73589C83.8667 6.47035 83.6197 6.22719 83.3499 6.01004L81.8457 4.6527C81.5632 4.41986 81.3344 4.13032 81.1747 3.80345C81.0235 3.44241 80.9507 3.05424 80.9609 2.66386C80.9434 2.38216 80.9855 2.09994 81.0845 1.83506C81.1835 1.57019 81.3372 1.32842 81.536 1.12506C81.752 0.933297 82.005 0.786277 82.2798 0.692752C82.5547 0.599227 82.8459 0.56111 83.1361 0.58067C83.4612 0.574318 83.785 0.620917 84.0947 0.718581C84.3545 0.805844 84.5895 0.952626 84.7804 1.14683C84.9747 1.35797 85.125 1.60458 85.2228 1.87269C85.3422 2.20271 85.4166 2.54686 85.444 2.89614L84.3601 3.18648C84.3429 2.91136 84.2959 2.63883 84.22 2.37352C84.1656 2.14248 84.0424 1.93269 83.8661 1.77107C83.6595 1.60375 83.3956 1.52064 83.1287 1.53879C82.9949 1.53123 82.8608 1.54979 82.7343 1.59338C82.6077 1.63698 82.4912 1.70477 82.3914 1.79284C82.2995 1.88985 82.2287 2.0042 82.183 2.12897C82.1374 2.25374 82.118 2.38632 82.1259 2.51869C82.1169 2.75151 82.165 2.98305 82.266 3.19373C82.3818 3.4022 82.537 3.58697 82.7232 3.73812L84.279 5.08095C84.6386 5.38459 84.9471 5.74225 85.1933 6.14069C85.4641 6.57724 85.6023 7.08099 85.5915 7.59239C85.6012 7.99219 85.5047 8.38754 85.3113 8.73924C85.1393 9.04431 84.8838 9.29578 84.5739 9.46509C84.2167 9.6652 83.8126 9.77027 83.4015 9.76995Z" fill="#052554"/>
<path d="M87.5895 9.67572V1.59699H86.041V0.660645H90.3767V1.59699H88.902V9.67572H87.5895Z" fill="#052554"/>
<path d="M91.2549 9.67572V0.660645H94.8089V1.59699H92.5305V4.57298H94.3813V5.46578H92.5379V8.76841H94.8384V9.67572H91.2549Z" fill="#052554"/>
<path d="M95.8555 9.67572L96.0029 0.660645H97.2564L98.8786 7.98449L100.501 0.660645H101.754L101.924 9.67572H100.899L100.796 3.14306L99.2473 9.67572H98.51L96.9689 3.14306L96.8656 9.67572H95.8555Z" fill="#052554"/>
<path d="M102.824 9.67572L104.763 0.660645H106.002L107.956 9.67572H106.747L106.327 7.4038H104.461L104.019 9.67572H102.824ZM104.631 6.53278H106.179L105.442 2.46801L104.631 6.53278Z" fill="#052554"/>
<path d="M111.473 9.67565V0.660572H113.456C114.011 0.635722 114.565 0.740171 115.071 0.96543C115.458 1.15778 115.76 1.48321 115.919 1.88C116.1 2.3678 116.185 2.88513 116.17 3.40429V6.72143C116.185 7.2714 116.1 7.81962 115.919 8.34008C115.769 8.7555 115.477 9.10687 115.093 9.3345C114.623 9.58274 114.093 9.70064 113.559 9.67565H111.473ZM112.748 8.76833H113.486C113.839 8.80186 114.192 8.7091 114.481 8.50703C114.69 8.2958 114.816 8.01767 114.835 7.72311C114.883 7.31356 114.905 6.90143 114.901 6.48916V3.58575C114.91 3.20363 114.878 2.82165 114.806 2.44617C114.764 2.19351 114.624 1.96686 114.415 1.81468C114.117 1.66278 113.783 1.59495 113.449 1.6187H112.763L112.748 8.76833Z" fill="#052554"/>
<path d="M117.431 9.67572V0.660645H120.977V1.59699H118.714V4.57298H120.557V5.46578H118.714V8.76841H121.007V9.67572H117.431Z" fill="#052554"/>
<path d="M75.2687 23.14C74.7842 23.1639 74.3043 23.0369 73.8973 22.7771C73.5401 22.5161 73.2808 22.146 73.1599 21.7246C72.9921 21.1889 72.9124 20.6301 72.9239 20.0696V17.0501C72.9131 16.4816 72.9852 15.9145 73.1378 15.3661C73.2447 14.9365 73.5068 14.5598 73.8751 14.3064C74.3174 14.039 74.8316 13.91 75.3498 13.9362C75.8286 13.916 76.305 14.0133 76.7361 14.2193C77.0788 14.4146 77.3401 14.7232 77.4734 15.0903C77.6449 15.5551 77.725 16.0478 77.7094 16.542V16.8759H76.5149V16.5928C76.52 16.2716 76.4928 15.9507 76.4338 15.6347C76.398 15.4158 76.2827 15.2172 76.1093 15.0758C75.8889 14.9407 75.631 14.8773 75.372 14.8943C75.2253 14.8817 75.0775 14.8976 74.9371 14.9412C74.7966 14.9848 74.6663 15.0552 74.5535 15.1484C74.3669 15.3477 74.2551 15.6038 74.2364 15.8742C74.1896 16.2036 74.1674 16.536 74.1701 16.8686V20.2076C74.1663 20.5703 74.1984 20.9325 74.2659 21.2891C74.3112 21.5392 74.4411 21.7669 74.6346 21.9351C74.852 22.0794 75.1099 22.1531 75.372 22.1456C75.6376 22.1543 75.8982 22.0723 76.1093 21.9133C76.3034 21.7278 76.4325 21.4863 76.478 21.2237C76.5559 20.8489 76.5905 20.4666 76.5812 20.0842V19.4527H75.5047V18.5671H77.8274V23.0311H77.0236L76.8983 21.9931C76.7898 22.313 76.5932 22.597 76.3305 22.8134C76.0286 23.0455 75.6512 23.1616 75.2687 23.14Z" fill="#052554"/>
<path d="M79.4424 23.0312V14.0161H82.9891V14.9452H80.718V17.9285H82.5835V18.8213H80.7401V22.1239H83.0333V23.0312H79.4424Z" fill="#052554"/>
<path d="M86.5053 23.1256C86.0439 23.144 85.5873 23.0278 85.1928 22.7917C84.8381 22.5696 84.5583 22.2487 84.389 21.8699C84.2038 21.4366 84.0966 20.9748 84.072 20.5053L85.2075 20.2004C85.2279 20.512 85.2798 20.8208 85.3624 21.1223C85.4258 21.3922 85.5577 21.6419 85.7458 21.8481C85.8427 21.9421 85.9581 22.0156 86.0849 22.0643C86.2117 22.113 86.3471 22.1357 86.4831 22.1312C86.6188 22.1384 86.7545 22.1176 86.8815 22.0701C87.0085 22.0226 87.1239 21.9495 87.2205 21.8554C87.4048 21.636 87.4971 21.3556 87.4786 21.0715C87.4963 20.7224 87.3951 20.3775 87.191 20.0916C86.9728 19.8239 86.7255 19.5805 86.4536 19.3657L84.9126 18.0302C84.6322 17.797 84.4059 17.5074 84.2489 17.1809C84.0943 16.8209 84.0213 16.432 84.0351 16.0413C84.0176 15.7596 84.0597 15.4774 84.1587 15.2125C84.2577 14.9476 84.4114 14.7059 84.6103 14.5025C84.8314 14.2995 85.0932 14.1442 85.3789 14.0467C85.6647 13.9492 85.9679 13.9116 86.2693 13.9363C86.592 13.9293 86.9136 13.9759 87.2205 14.0743C87.4833 14.1597 87.7212 14.3067 87.9136 14.5025C88.1079 14.7136 88.2582 14.9603 88.356 15.2284C88.4754 15.5584 88.5498 15.9025 88.5772 16.2518L87.4859 16.5422C87.4674 16.2677 87.423 15.9955 87.3532 15.7292C87.2988 15.4982 87.1756 15.2884 86.9993 15.1267C86.7869 14.9689 86.528 14.8836 86.2619 14.8836C85.9958 14.8836 85.737 14.9689 85.5246 15.1267C85.4327 15.2238 85.3619 15.3381 85.3162 15.4629C85.2706 15.5876 85.2512 15.7202 85.2591 15.8526C85.2506 16.0862 85.3013 16.3182 85.4066 16.5276C85.52 16.7377 85.6755 16.9229 85.8638 17.072L87.4122 18.4076C87.7681 18.7176 88.0761 19.077 88.3265 19.4746C88.5977 19.911 88.7359 20.4148 88.7247 20.9263C88.7367 21.3295 88.6373 21.7284 88.4371 22.0804C88.2688 22.3882 88.0124 22.6406 87.6998 22.8063C87.3378 23.0161 86.9253 23.1264 86.5053 23.1256Z" fill="#052554"/>
<path d="M91.0035 23.0312V14.9452H89.4551V14.0161H93.7907V14.9452H92.316V23.0312H91.0035Z" fill="#052554"/>
<path d="M94.4551 23.0314L96.4017 14.0163H97.6331L99.5871 23.0314H98.3778L97.9575 20.7595H96.092L95.657 23.0314H94.4551ZM97.8838 12.659C97.687 12.6619 97.4932 12.6117 97.3234 12.5138C97.1612 12.4267 97.0063 12.3324 96.8662 12.2453C96.7271 12.1583 96.5664 12.1106 96.4017 12.1073C96.3492 12.1031 96.2963 12.1099 96.2467 12.1274C96.1971 12.145 96.1519 12.1728 96.1141 12.209C96.0382 12.3116 96.004 12.4384 96.0183 12.5646H95.3252C95.3229 12.3605 95.3528 12.1573 95.4136 11.9622C95.4589 11.7919 95.5568 11.6397 95.6938 11.5267C95.8482 11.412 96.0391 11.3553 96.2321 11.367C96.4128 11.3653 96.5908 11.4104 96.7483 11.4976L97.2054 11.7662C97.3451 11.851 97.5058 11.8962 97.6699 11.8968C97.7208 11.9015 97.772 11.8955 97.8203 11.8792C97.8686 11.863 97.9129 11.8368 97.9501 11.8025C98.0195 11.6917 98.0505 11.5619 98.0386 11.4323H98.717C98.7192 11.6374 98.6969 11.842 98.6506 12.042C98.6157 12.2137 98.5283 12.3708 98.3999 12.492C98.2557 12.6103 98.0711 12.67 97.8838 12.659ZM96.2616 19.8594H97.7879L97.0506 15.7947L96.2616 19.8594Z" fill="#052554"/>
<path d="M103.118 23.1255C102.602 23.1508 102.09 23.0272 101.644 22.7698C101.27 22.5291 100.989 22.171 100.847 21.7536C100.682 21.2523 100.602 20.7274 100.611 20.2003V16.7815C100.6 16.2632 100.682 15.747 100.855 15.2572C100.999 14.853 101.277 14.5079 101.644 14.2773C102.094 14.0318 102.604 13.9137 103.118 13.9362C103.633 13.911 104.144 14.0292 104.593 14.2773C104.95 14.509 105.221 14.8475 105.367 15.2427C105.54 15.7325 105.622 16.2487 105.611 16.767V20.2003C105.626 20.7354 105.544 21.269 105.367 21.7754C105.225 22.1903 104.951 22.5491 104.586 22.7988C104.14 23.0475 103.63 23.1611 103.118 23.1255ZM103.118 22.1383C103.38 22.1515 103.639 22.0801 103.856 21.9351C104.034 21.7848 104.156 21.5805 104.202 21.3544C104.272 21.0668 104.304 20.7717 104.298 20.4761V16.5275C104.304 16.2367 104.272 15.9464 104.202 15.6637C104.155 15.446 104.033 15.2511 103.856 15.1121C103.637 14.9728 103.379 14.9043 103.118 14.9161C102.858 14.9058 102.601 14.9741 102.381 15.1121C102.195 15.2456 102.067 15.4422 102.02 15.6637C101.957 15.9473 101.927 16.2372 101.931 16.5275V20.4761C101.927 20.7712 101.957 21.0659 102.02 21.3544C102.066 21.5842 102.194 21.7903 102.381 21.9351C102.598 22.0787 102.857 22.1499 103.118 22.1383Z" fill="#052554"/>
<path d="M110.072 23.0314V14.0163H112.078C112.633 13.9914 113.186 14.0959 113.693 14.3211C114.073 14.5194 114.366 14.8471 114.519 15.243C114.7 15.7308 114.785 16.2481 114.769 16.7673V20.0844C114.785 20.6344 114.7 21.1826 114.519 21.7031C114.368 22.1185 114.076 22.4698 113.693 22.6975C113.222 22.9457 112.692 23.0636 112.159 23.0386L110.072 23.0314ZM111.341 22.124H112.078C112.431 22.1576 112.784 22.0648 113.073 21.8627C113.283 21.6515 113.408 21.3734 113.427 21.0788C113.475 20.6693 113.498 20.2571 113.494 19.8449V16.9415C113.503 16.5593 113.471 16.1773 113.398 15.8019C113.378 15.6764 113.334 15.5559 113.267 15.4475C113.2 15.3391 113.111 15.2449 113.007 15.1704C112.71 15.0156 112.376 14.9452 112.041 14.9672H111.341V22.124Z" fill="#052554"/>
<path d="M115.838 23.0312L117.777 14.0161H119.009L120.97 23.0312H119.761L119.34 20.7593H117.475L117.032 23.0312H115.838ZM117.644 19.8592H119.171L118.433 15.7944L117.644 19.8592Z" fill="#052554"/>
<path d="M73.0859 36.387V27.372H75.357C75.8156 27.3486 76.272 27.449 76.6769 27.6623C77.0149 27.8564 77.2752 28.1587 77.4142 28.5188C77.5781 28.9476 77.6557 29.4037 77.6428 29.8616C77.6548 30.2863 77.5691 30.7081 77.3921 31.0956C77.2355 31.4319 76.9782 31.713 76.6547 31.9013C76.2738 32.1075 75.843 32.2079 75.4086 32.1916H74.3984V36.387H73.0859ZM74.3616 31.3061H74.9514C75.2462 31.3184 75.5408 31.279 75.8215 31.1899C75.9234 31.1511 76.0163 31.0925 76.0948 31.0177C76.1734 30.9429 76.2359 30.8534 76.2787 30.7544C76.3794 30.4802 76.4245 30.1892 76.4114 29.8979C76.4232 29.5638 76.3909 29.2295 76.3156 28.9035C76.2892 28.7997 76.2398 28.7029 76.1709 28.6201C76.1021 28.5373 76.0155 28.4705 75.9174 28.4244C75.6115 28.3222 75.2888 28.2778 74.9662 28.2938H74.3616V31.3061Z" fill="#052554"/>
<path d="M78.8301 36.387V27.3719H80.6735C81.1759 27.3604 81.6761 27.4417 82.1482 27.6114C82.5291 27.7515 82.8459 28.0221 83.0404 28.3736C83.2486 28.8061 83.3473 29.2818 83.3279 29.76C83.3314 30.0802 83.2943 30.3996 83.2173 30.7108C83.1501 30.9751 83.027 31.2224 82.856 31.4367C82.6808 31.6353 82.4539 31.7834 82.1998 31.8649L83.4975 36.387H82.2662L81.1085 32.1553H80.1131V36.387H78.8301ZM80.1057 31.2552H80.5924C80.8936 31.2664 81.1942 31.2195 81.4772 31.1173C81.5862 31.0772 81.6861 31.0161 81.7709 30.9375C81.8557 30.859 81.9238 30.7647 81.9712 30.66C82.0945 30.3762 82.15 30.0683 82.1334 29.76C82.1698 29.3581 82.0658 28.9561 81.8385 28.6204C81.6807 28.484 81.4951 28.3824 81.2942 28.3223C81.0933 28.2622 80.8817 28.245 80.6735 28.272H80.1057V31.2552Z" fill="#052554"/>
<path d="M87.3542 36.4815C86.838 36.5069 86.3254 36.3832 85.8795 36.1259C85.5073 35.8848 85.2292 35.5265 85.0906 35.1097C84.9251 34.6083 84.8454 34.0834 84.8546 33.5564V30.1376C84.8429 29.6193 84.9253 29.1031 85.0979 28.6133C85.2422 28.209 85.52 27.864 85.8869 27.6334C86.3451 27.409 86.8499 27.2922 87.3616 27.2922C87.8734 27.2922 88.3782 27.409 88.8363 27.6334C89.1982 27.8677 89.4726 28.2117 89.6179 28.6133C89.7905 29.1031 89.873 29.6193 89.8613 30.1376V33.5709C89.8715 34.0915 89.7891 34.6098 89.6179 35.1024C89.4757 35.5173 89.2017 35.8762 88.8363 36.1259C88.3888 36.3858 87.8731 36.5096 87.3542 36.4815ZM87.3542 35.4944C87.6161 35.5087 87.8754 35.4372 88.0916 35.2911C88.274 35.1435 88.399 34.9384 88.4455 34.7105C88.5086 34.4219 88.5383 34.1273 88.534 33.8322V29.8836C88.5494 29.5995 88.5321 29.3146 88.4824 29.0343C88.4354 28.8146 88.3098 28.6188 88.1285 28.4827C87.9098 28.3425 87.6517 28.2739 87.3911 28.2867C87.1308 28.2763 86.8734 28.3447 86.6538 28.4827C86.4724 28.6188 86.3468 28.8146 86.2998 29.0343C86.2367 29.3179 86.207 29.6078 86.2113 29.8981V33.8467C86.207 34.1418 86.2367 34.4365 86.2998 34.725C86.3463 34.9529 86.4713 35.158 86.6538 35.3057C86.8625 35.4369 87.1067 35.5027 87.3542 35.4944Z" fill="#052554"/>
<path d="M91.4316 36.387V27.372H93.4225C93.9753 27.3463 94.5264 27.4508 95.0299 27.6768C95.4077 27.8744 95.7007 28.1989 95.8558 28.5914C96.037 29.0792 96.1221 29.5965 96.1065 30.1157V33.4328C96.1219 33.9828 96.037 34.531 95.8558 35.0515C95.7028 35.4654 95.4117 35.816 95.0299 36.0459C94.5595 36.2941 94.0294 36.412 93.4962 36.387H91.4316ZM92.7073 35.4797H93.4446C93.7951 35.5115 94.1456 35.4188 94.4327 35.2184C94.6443 35.0079 94.7724 34.7299 94.794 34.4345C94.8356 34.0245 94.8553 33.6126 94.853 33.2005V30.2971C94.8604 29.9154 94.8307 29.5338 94.7645 29.1576C94.7454 29.0311 94.7002 28.9099 94.6318 28.8013C94.5633 28.6926 94.473 28.599 94.3663 28.5261C94.0725 28.3712 93.7403 28.3007 93.4078 28.3228H92.7146L92.7073 35.4797Z" fill="#052554"/>
<path d="M100.065 36.4813C99.5279 36.5173 98.9928 36.3825 98.5391 36.0966C98.1737 35.8245 97.9136 35.4378 97.8017 35.0005C97.6667 34.4591 97.6023 33.903 97.61 33.3456V27.3718H98.834V33.3891C98.8328 33.7415 98.8599 34.0934 98.9151 34.4416C98.9474 34.7249 99.0685 34.9913 99.2617 35.2038C99.3679 35.3013 99.4935 35.3761 99.6306 35.4236C99.7676 35.471 99.9131 35.4901 100.058 35.4796C100.203 35.4914 100.349 35.473 100.486 35.4255C100.623 35.3779 100.749 35.3024 100.854 35.2038C101.041 34.9877 101.158 34.7228 101.194 34.4416C101.252 34.0939 101.28 33.7416 101.275 33.3891V27.3718H102.491V33.3456C102.503 33.9032 102.438 34.4598 102.3 35.0005C102.189 35.4385 101.929 35.8257 101.562 36.0966C101.118 36.3783 100.593 36.5131 100.065 36.4813Z" fill="#052554"/>
<path d="M106.451 36.4815C105.917 36.5143 105.386 36.3741 104.94 36.0823C104.585 35.8102 104.326 35.434 104.203 35.008C104.058 34.5151 103.989 34.0039 103.996 33.491V30.3045C103.986 29.7676 104.056 29.2321 104.203 28.7149C104.323 28.2935 104.583 27.9234 104.94 27.6624C105.394 27.3909 105.921 27.2618 106.451 27.2922C106.927 27.2674 107.4 27.3756 107.816 27.6043C108.158 27.8098 108.419 28.125 108.553 28.4971C108.71 28.9425 108.785 29.4121 108.774 29.8835V30.6094H107.565V29.9779C107.565 29.682 107.548 29.3863 107.513 29.0923C107.494 28.8677 107.395 28.6569 107.233 28.4971C107.021 28.342 106.759 28.2672 106.496 28.2866C106.213 28.2621 105.932 28.3424 105.707 28.5116C105.532 28.6877 105.418 28.9139 105.382 29.1577C105.332 29.4795 105.308 29.8047 105.309 30.1303V33.7087C105.301 34.0703 105.34 34.4314 105.427 34.783C105.476 35.0075 105.607 35.2064 105.795 35.3419C106.008 35.4608 106.251 35.5186 106.496 35.5089C106.761 35.5269 107.024 35.4466 107.233 35.2838C107.393 35.1082 107.491 34.8869 107.513 34.6524C107.554 34.3419 107.574 34.0291 107.572 33.716V33.0482H108.782V33.716C108.791 34.2076 108.721 34.6976 108.575 35.1677C108.46 35.5625 108.213 35.9077 107.875 36.1476C107.448 36.4031 106.95 36.5199 106.451 36.4815ZM106.51 39.0002C106.385 39.0109 106.26 39.0109 106.134 39.0002L105.751 38.9276V38.3252C105.847 38.3556 105.946 38.3751 106.046 38.3832H106.326C106.497 38.3878 106.666 38.353 106.82 38.2816C106.883 38.2516 106.936 38.2038 106.971 38.1444C107.007 38.085 107.023 38.0165 107.019 37.9477C107.024 37.8302 106.981 37.7155 106.901 37.6283C106.81 37.541 106.699 37.4763 106.577 37.4396C106.407 37.3843 106.231 37.3454 106.053 37.3235V36.3871H106.665V37.0186C106.989 37.0054 107.307 37.0973 107.572 37.2799C107.689 37.3606 107.783 37.47 107.844 37.5974C107.905 37.7247 107.93 37.8655 107.919 38.0058C107.929 38.217 107.864 38.4251 107.734 38.5937C107.599 38.7506 107.423 38.8684 107.226 38.9349C106.992 38.9949 106.751 39.0169 106.51 39.0002Z" fill="#052554"/>
<path d="M109.799 36.3871L111.745 27.372H112.977L114.931 36.3871H113.722L113.301 34.1152H111.436L110.993 36.3871H109.799ZM113.22 26.0147C113.024 26.0165 112.83 25.9664 112.66 25.8695L112.203 25.601C112.067 25.5131 111.908 25.4653 111.745 25.4631C111.692 25.4595 111.638 25.4667 111.587 25.4842C111.537 25.5017 111.49 25.529 111.45 25.5647C111.378 25.6689 111.344 25.7945 111.355 25.9203H110.669C110.668 25.7168 110.695 25.5142 110.75 25.3179C110.801 25.1484 110.901 24.9971 111.038 24.8824C111.192 24.7677 111.383 24.711 111.576 24.7227C111.754 24.7213 111.93 24.7663 112.085 24.8533L112.542 25.1219C112.682 25.205 112.842 25.2501 113.006 25.2526C113.058 25.2573 113.111 25.2514 113.16 25.2352C113.21 25.2189 113.255 25.1927 113.294 25.1582C113.363 25.0474 113.394 24.9176 113.382 24.788H114.061C114.063 24.9931 114.041 25.1977 113.994 25.3977C113.957 25.5684 113.869 25.7246 113.744 25.8478C113.598 25.9678 113.41 26.0276 113.22 26.0147ZM111.605 33.2151H113.132L112.394 29.1504L111.605 33.2151Z" fill="#052554"/>
<path d="M118.47 36.4812C117.954 36.5066 117.441 36.3829 116.995 36.1256C116.621 35.8867 116.342 35.5276 116.206 35.1094C116.035 34.6093 115.952 34.0838 115.963 33.5561V30.1373C115.951 29.619 116.034 29.1028 116.206 28.613C116.35 28.2065 116.631 27.8608 117.003 27.6331C117.452 27.3854 117.963 27.2671 118.477 27.292C118.992 27.2655 119.503 27.3839 119.952 27.6331C120.316 27.867 120.593 28.2109 120.741 28.613C120.914 29.1028 120.996 29.619 120.984 30.1373V33.5706C120.995 34.0911 120.912 34.6095 120.741 35.1021C120.596 35.5175 120.319 35.8762 119.952 36.1256C119.506 36.388 118.989 36.5119 118.47 36.4812ZM118.47 35.4941C118.732 35.5084 118.991 35.4369 119.207 35.2908C119.387 35.1409 119.512 34.9368 119.561 34.7102C119.624 34.4216 119.654 34.127 119.65 33.8319V29.8832C119.654 29.5929 119.624 29.3031 119.561 29.0195C119.511 28.801 119.386 28.6061 119.207 28.4678C118.989 28.3277 118.731 28.2591 118.47 28.2719C118.21 28.2615 117.952 28.3299 117.733 28.4678C117.551 28.604 117.426 28.7998 117.379 29.0195C117.309 29.3021 117.277 29.5925 117.283 29.8832V33.8319C117.277 34.1274 117.309 34.4226 117.379 34.7102C117.425 34.9381 117.55 35.1432 117.733 35.2908C117.95 35.4345 118.208 35.5057 118.47 35.4941Z" fill="#052554"/>
</g>
<defs>
<clipPath id="clip0_1277_1011">
<rect width="121" height="39" fill="white"/>
</clipPath>
</defs>
</svg>
