<svg width="20" height="20" viewBox="0 0 20 20" fill="none" xmlns="http://www.w3.org/2000/svg">
<path d="M6.5 10L11 5.5L12.4 6.925L9.325 10L12.4 13.075L11 14.5L6.5 10ZM4.37114e-07 10C3.76646e-07 11.3833 0.262667 12.6833 0.788 13.9C1.31267 15.1167 2.025 16.175 2.925 17.075C3.825 17.975 4.88333 18.6873 6.1 19.212C7.31667 19.7373 8.61667 20 10 20C11.3833 20 12.6833 19.7373 13.9 19.212C15.1167 18.6873 16.175 17.975 17.075 17.075C17.975 16.175 18.6877 15.1167 19.213 13.9C19.7377 12.6833 20 11.3833 20 10C20 8.61667 19.7377 7.31667 19.213 6.1C18.6877 4.88333 17.975 3.825 17.075 2.925C16.175 2.025 15.1167 1.31267 13.9 0.788C12.6833 0.262666 11.3833 -3.76646e-07 10 -4.37114e-07C8.61667 -4.97581e-07 7.31667 0.262666 6.1 0.787999C4.88333 1.31267 3.825 2.025 2.925 2.925C2.025 3.825 1.31267 4.88333 0.788001 6.1C0.262667 7.31667 4.97581e-07 8.61667 4.37114e-07 10ZM2 10C2 7.78333 2.779 5.89567 4.337 4.337C5.89567 2.779 7.78333 2 10 2C12.2167 2 14.1043 2.779 15.663 4.337C17.221 5.89567 18 7.78333 18 10C18 12.2167 17.221 14.104 15.663 15.662C14.1043 17.2207 12.2167 18 10 18C7.78333 18 5.89567 17.2207 4.337 15.662C2.779 14.104 2 12.2167 2 10Z" fill="#052554"/>
</svg>
