<svg width="33" height="33" viewBox="0 0 33 33" fill="none" xmlns="http://www.w3.org/2000/svg">
<path d="M6.50527 24.788C7.88652 23.7317 9.43027 22.8987 11.1365 22.2887C12.8428 21.6799 14.6303 21.3755 16.499 21.3755C18.3678 21.3755 20.1553 21.6799 21.8615 22.2887C23.5678 22.8987 25.1115 23.7317 26.4928 24.788C27.4407 23.6776 28.179 22.4182 28.7077 21.0099C29.2352 19.6015 29.499 18.0984 29.499 16.5005C29.499 12.8984 28.2332 9.83095 25.7014 7.29811C23.1686 4.76636 20.1011 3.50049 16.499 3.50049C12.8969 3.50049 9.83002 4.76636 7.29827 7.29811C4.76544 9.83095 3.49902 12.8984 3.49902 16.5005C3.49902 18.0984 3.76336 19.6015 4.29202 21.0099C4.81961 22.4182 5.55736 23.6776 6.50527 24.788ZM16.499 18.1255C14.9011 18.1255 13.5534 17.5773 12.456 16.481C11.3597 15.3836 10.8115 14.0359 10.8115 12.438C10.8115 10.8401 11.3597 9.49241 12.456 8.39499C13.5534 7.29866 14.9011 6.75049 16.499 6.75049C18.0969 6.75049 19.4446 7.29866 20.542 8.39499C21.6384 9.49241 22.1865 10.8401 22.1865 12.438C22.1865 14.0359 21.6384 15.3836 20.542 16.481C19.4446 17.5773 18.0969 18.1255 16.499 18.1255ZM16.499 32.7505C14.2511 32.7505 12.1386 32.3237 10.1615 31.47C8.18444 30.6174 6.46465 29.4599 5.00215 27.9974C3.53965 26.5349 2.38211 24.8151 1.52952 22.838C0.675857 20.8609 0.249023 18.7484 0.249023 16.5005C0.249023 14.2526 0.675857 12.1401 1.52952 10.163C2.38211 8.18591 3.53965 6.46611 5.00215 5.00361C6.46465 3.54111 8.18444 2.38303 10.1615 1.52936C12.1386 0.67678 14.2511 0.250488 16.499 0.250488C18.7469 0.250488 20.8594 0.67678 22.8365 1.52936C24.8136 2.38303 26.5334 3.54111 27.9959 5.00361C29.4584 6.46611 30.6159 8.18591 31.4685 10.163C32.3222 12.1401 32.749 14.2526 32.749 16.5005C32.749 18.7484 32.3222 20.8609 31.4685 22.838C30.6159 24.8151 29.4584 26.5349 27.9959 27.9974C26.5334 29.4599 24.8136 30.6174 22.8365 31.47C20.8594 32.3237 18.7469 32.7505 16.499 32.7505ZM16.499 29.5005C17.9344 29.5005 19.2886 29.2909 20.5615 28.8716C21.8344 28.4513 22.999 27.8484 24.0553 27.063C22.999 26.2776 21.8344 25.6747 20.5615 25.2544C19.2886 24.8351 17.9344 24.6255 16.499 24.6255C15.0636 24.6255 13.7094 24.8351 12.4365 25.2544C11.1636 25.6747 9.99902 26.2776 8.94277 27.063C9.99902 27.8484 11.1636 28.4513 12.4365 28.8716C13.7094 29.2909 15.0636 29.5005 16.499 29.5005ZM16.499 14.8755C17.2032 14.8755 17.7855 14.6453 18.2459 14.1849C18.7063 13.7244 18.9365 13.1422 18.9365 12.438C18.9365 11.7338 18.7063 11.1515 18.2459 10.6911C17.7855 10.2307 17.2032 10.0005 16.499 10.0005C15.7949 10.0005 15.2126 10.2307 14.7522 10.6911C14.2917 11.1515 14.0615 11.7338 14.0615 12.438C14.0615 13.1422 14.2917 13.7244 14.7522 14.1849C15.2126 14.6453 15.7949 14.8755 16.499 14.8755Z" fill="#052554"/>
</svg>
