<svg width="22" height="18" viewBox="0 0 18 18" fill="none" xmlns="http://www.w3.org/2000/svg">
<path d="M15.9844 9.98438H2.01562C1.45312 9.98438 0.96875 10.1875 0.5625 10.5938C0.1875 10.9688 0 11.4375 0 12V15.9844C0 16.5469 0.1875 17.0312 0.5625 17.4375C0.96875 17.8125 1.45312 18 2.01562 18H15.9844C16.5469 18 17.0156 17.8125 17.3906 17.4375C17.7969 17.0312 18 16.5469 18 15.9844V12C18 11.4375 17.7969 10.9688 17.3906 10.5938C17.0156 10.1875 16.5469 9.98438 15.9844 9.98438ZM15.9844 0H2.01562C1.45312 0 0.96875 0.203125 0.5625 0.609375C0.1875 0.984375 0 1.45312 0 2.01562V6C0 6.5625 0.1875 7.04688 0.5625 7.45312C0.96875 7.82812 1.45312 8.01562 2.01562 8.01562H15.9844C16.5469 8.01562 17.0156 7.82812 17.3906 7.45312C17.7969 7.04688 18 6.5625 18 6V2.01562C18 1.45312 17.7969 0.984375 17.3906 0.609375C17.0156 0.203125 16.5469 0 15.9844 0Z" fill="#052554"/>
</svg>
