<svg width="15" height="8" viewBox="0 0 15 8" fill="none" xmlns="http://www.w3.org/2000/svg">
<path d="M3.81107 4.82186C4.06765 5.07843 4.3637 5.20672 4.69922 5.20672C5.03475 5.20672 5.33079 5.07843 5.58737 4.82186C5.84395 4.56528 5.97224 4.26923 5.97224 3.93371C5.97224 3.59819 5.84395 3.30214 5.58737 3.04556C5.33079 2.78898 5.03475 2.6607 4.69922 2.6607C4.3637 2.6607 4.06765 2.78898 3.81107 3.04556C3.57423 3.30214 3.45581 3.59819 3.45581 3.93371C3.45581 4.26923 3.57423 4.56528 3.81107 4.82186ZM8.28142 2.6607H14.8241V5.20672H13.5511V7.72314H11.0347V5.20672H8.28142C8.02484 5.8975 7.5413 6.4896 6.83078 6.98302C6.14 7.47643 5.42948 7.72314 4.69922 7.72314C3.65318 7.72314 2.75516 7.35801 2.00517 6.62776C1.27492 5.87777 0.90979 4.97975 0.90979 3.93371C0.90979 2.88767 1.27492 1.99952 2.00517 1.26926C2.75516 0.519271 3.65318 0.144275 4.69922 0.144275C5.42948 0.144275 6.14 0.390983 6.83078 0.884399C7.5413 1.37781 8.02484 1.96991 8.28142 2.6607Z" fill="#2E2F30"/>
</svg>
