<svg width="14" height="14" viewBox="0 0 14 14" fill="none" xmlns="http://www.w3.org/2000/svg">
<path d="M12.1188 0.627855H1.99396C1.67817 0.627855 1.39199 0.756143 1.13542 1.01272C0.87884 1.24956 0.750552 1.53574 0.750552 1.87126V3.79558C0.750552 4.01269 0.809762 4.21992 0.928181 4.41729C1.0466 4.59492 1.19463 4.74294 1.37226 4.86136V11.9962C1.37226 12.2133 1.43147 12.4205 1.54989 12.6179C1.68804 12.8152 1.8558 12.9731 2.05317 13.0915C2.25054 13.1902 2.4479 13.2396 2.64527 13.2396H11.4675C11.6649 13.2396 11.8623 13.1902 12.0596 13.0915C12.257 12.9731 12.4149 12.8152 12.5333 12.6179C12.6715 12.4205 12.7406 12.2133 12.7406 11.9962V4.86136C12.9182 4.74294 13.0662 4.59492 13.1846 4.41729C13.303 4.21992 13.3623 4.01269 13.3623 3.79558V1.87126C13.3623 1.53574 13.234 1.24956 12.9774 1.01272C12.7208 0.756143 12.4346 0.627855 12.1188 0.627855ZM8.95112 8.20672H5.16169V6.93371H8.95112V8.20672ZM12.1188 3.76598H1.99396V1.87126H12.1188V3.76598Z" fill="#2E2F30"/>
</svg>
