<svg width="20" height="20" viewBox="0 0 20 20" fill="none" xmlns="http://www.w3.org/2000/svg">
<path d="M9.99862 19.9997C8.61542 19.9997 7.31542 19.7373 6.09862 19.2125C4.88182 18.6877 3.82342 17.9753 2.92342 17.0753C2.02342 16.1753 1.31102 15.1169 0.786223 13.9001C0.261423 12.6833 -0.000976562 11.3833 -0.000976562 10.0001C-0.000976562 8.61689 0.261423 7.31689 0.786223 6.10009C1.31102 4.88329 2.02342 3.82489 2.92342 2.92489C3.82342 2.02489 4.88182 1.31249 6.09862 0.787688C7.31542 0.262888 8.61542 0.000488281 9.99862 0.000488281C11.3818 0.000488281 12.6818 0.262888 13.8986 0.787688C15.1154 1.31249 16.1738 2.02489 17.0738 2.92489C17.9738 3.82489 18.6862 4.88329 19.211 6.10009C19.7358 7.31689 19.9982 8.61689 19.9982 10.0001C19.9982 11.3833 19.7358 12.6833 19.211 13.9001C18.6862 15.1169 17.9738 16.1753 17.0738 17.0753C16.1738 17.9753 15.1154 18.6877 13.8986 19.2125C12.6818 19.7373 11.3818 19.9997 9.99862 19.9997ZM9.99862 17.8997C12.1818 17.8997 14.0442 17.1289 15.5858 15.5873C17.1274 14.0457 17.8982 12.1833 17.8982 10.0001C17.8982 7.81689 17.1274 5.95449 15.5858 4.41289C14.0442 2.87129 12.1818 2.10049 9.99862 2.10049C7.81542 2.10049 5.95302 2.87129 4.41142 4.41289C2.86982 5.95449 2.09902 7.81689 2.09902 10.0001C2.09902 12.1833 2.86982 14.0457 4.41142 15.5873C5.95302 17.1289 7.81542 17.8997 9.99862 17.8997ZM5.89822 14.1005H14.099V5.89969H5.89822V14.1005Z" fill="#C02B2B"/>
</svg>
