<svg width="13" height="12" viewBox="0 0 13 12" fill="none" xmlns="http://www.w3.org/2000/svg">
<path d="M2.82129 6.46875C3.40462 7.05208 4.11296 7.34375 4.94629 7.34375C5.77962 7.34375 6.48796 7.05208 7.07129 6.46875C7.65462 5.88542 7.94629 5.17708 7.94629 4.34375C7.94629 3.51042 7.65462 2.80208 7.07129 2.21875C6.48796 1.63542 5.77962 1.34375 4.94629 1.34375C4.11296 1.34375 3.40462 1.63542 2.82129 2.21875C2.23796 2.80208 1.94629 3.51042 1.94629 4.34375C1.94629 5.17708 2.23796 5.88542 2.82129 6.46875ZM8.94629 7.34375L12.2588 10.6562L11.2588 11.6562L7.94629 8.34375V7.8125L7.75879 7.625C6.96712 8.3125 6.02962 8.65625 4.94629 8.65625C3.73796 8.65625 2.70671 8.23958 1.85254 7.40625C1.01921 6.57292 0.602539 5.55208 0.602539 4.34375C0.602539 3.13542 1.01921 2.11458 1.85254 1.28125C2.70671 0.427083 3.73796 0 4.94629 0C6.15462 0 7.17546 0.427083 8.00879 1.28125C8.84212 2.11458 9.25879 3.13542 9.25879 4.34375C9.25879 4.78125 9.15462 5.28125 8.94629 5.84375C8.73796 6.38542 8.49837 6.82292 8.22754 7.15625L8.41504 7.34375H8.94629Z" fill="#0C4394"/>
</svg>
