<svg width="20" height="16" viewBox="0 0 20 16" fill="none" xmlns="http://www.w3.org/2000/svg">
<path d="M2 16C1.45 16 0.979333 15.8043 0.588 15.413C0.196 15.021 0 14.55 0 14V2C0 1.45 0.196 0.979333 0.588 0.588C0.979333 0.196 1.45 0 2 0H18C18.55 0 19.021 0.196 19.413 0.588C19.8043 0.979333 20 1.45 20 2V14C20 14.55 19.8043 15.021 19.413 15.413C19.021 15.8043 18.55 16 18 16H2ZM4.5 11H5.65V5H4.75L3 6.25L3.6 7.15L4.5 6.5V11ZM7.6 11H11.5V10H9.15L9.1 9.95C9.45 9.61667 9.73767 9.33333 9.963 9.1C10.1877 8.86667 10.3667 8.68333 10.5 8.55C10.8 8.25 11.025 7.95 11.175 7.65C11.325 7.35 11.4 7.03333 11.4 6.7C11.4 6.21667 11.2167 5.81267 10.85 5.488C10.4833 5.16267 10.0167 5 9.45 5C9.01667 5 8.625 5.125 8.275 5.375C7.925 5.625 7.68333 5.95 7.55 6.35L8.55 6.75C8.63333 6.53333 8.75433 6.36233 8.913 6.237C9.071 6.11233 9.25 6.05 9.45 6.05C9.7 6.05 9.904 6.11667 10.062 6.25C10.2207 6.38333 10.3 6.55 10.3 6.75C10.3 6.93333 10.2667 7.104 10.2 7.262C10.1333 7.42067 9.98333 7.61667 9.75 7.85C9.56667 8.03333 9.3 8.3 8.95 8.65C8.6 9 8.15 9.45 7.6 10V11ZM15 11C15.6 11 16.0833 10.8333 16.45 10.5C16.8167 10.1667 17 9.73333 17 9.2C17 8.9 16.9167 8.63333 16.75 8.4C16.5833 8.16667 16.35 7.98333 16.05 7.85V7.8C16.2833 7.66667 16.4667 7.49567 16.6 7.287C16.7333 7.079 16.8 6.83333 16.8 6.55C16.8 6.1 16.625 5.72933 16.275 5.438C15.925 5.146 15.4833 5 14.95 5C14.5333 5 14.1457 5.121 13.787 5.363C13.429 5.60433 13.2 5.9 13.1 6.25L14.1 6.65C14.1667 6.45 14.275 6.29167 14.425 6.175C14.575 6.05833 14.75 6 14.95 6C15.1667 6 15.346 6.06267 15.488 6.188C15.6293 6.31267 15.7 6.46667 15.7 6.65C15.7 6.88333 15.6167 7.06667 15.45 7.2C15.2833 7.33333 15.0667 7.4 14.8 7.4H14.35V8.4H14.85C15.1833 8.4 15.4417 8.46667 15.625 8.6C15.8083 8.73333 15.9 8.91667 15.9 9.15C15.9 9.36667 15.8083 9.554 15.625 9.712C15.4417 9.87067 15.2333 9.95 15 9.95C14.7167 9.95 14.5 9.88733 14.35 9.762C14.2 9.63733 14.0667 9.41667 13.95 9.1L12.95 9.5C13.0667 9.98333 13.304 10.3543 13.662 10.613C14.0207 10.871 14.4667 11 15 11ZM2 14H18V2H2V14Z" fill="#878A8C"/>
</svg>
