<svg width="132" height="44" viewBox="0 0 132 44" fill="none" xmlns="http://www.w3.org/2000/svg">
<path d="M11.8128 40.5751C8.86708 40.5751 6.53607 40.0629 4.81974 39.0225C3.11095 37.9984 1.80582 36.4159 1.12364 34.5409C0.332422 32.3045 -0.0462834 29.9425 0.00602419 27.5703V12.9088C-0.0532754 10.5387 0.325647 8.17803 1.12364 5.94621C1.80473 4.09631 3.1018 2.53874 4.79579 1.53657C6.52542 0.512191 8.86442 0 11.8128 0C14.7904 0 17.1534 0.512191 18.8857 1.53657C20.5951 2.53117 21.9071 4.08974 22.5977 5.94621C23.399 8.1772 23.778 10.5385 23.7153 12.9088V27.5703C23.7716 29.9428 23.3928 32.3055 22.5977 34.5409C21.9121 36.4187 20.6009 38.0017 18.8857 39.0225C17.1534 40.0629 14.7904 40.5751 11.8128 40.5751ZM11.8128 34.3888C12.1744 34.4212 12.5387 34.3775 12.8824 34.2603C13.2261 34.1432 13.5416 33.9552 13.8085 33.7085C14.2353 33.2122 14.5122 32.6043 14.6068 31.9559C14.7383 31.2324 14.8051 30.4985 14.8064 29.7631V10.764C14.8066 10.0205 14.7398 9.27859 14.6068 8.54718C14.5091 7.90689 14.2323 7.30749 13.8085 6.81854C13.5416 6.57187 13.2261 6.38393 12.8824 6.26677C12.5387 6.14962 12.1744 6.10585 11.8128 6.13828C11.4674 6.11116 11.1202 6.15777 10.794 6.27502C10.4679 6.39228 10.1703 6.57753 9.92083 6.81854C9.49479 7.30602 9.21767 7.90611 9.12254 8.54718C8.9923 9.27884 8.92818 10.0208 8.93095 10.764V29.7631C8.92967 30.4973 8.98572 31.2305 9.09859 31.9559C9.18748 32.606 9.46509 33.2155 9.89688 33.7085C10.1488 33.9545 10.4497 34.1443 10.7799 34.2657C11.11 34.387 11.462 34.4372 11.8128 34.4128V34.3888Z" fill="#current"/>
<path d="M29.0156 40.0148V0.536133H46.7058V6.48235H37.717V16.27H44.5664V22.3122H37.717V34.1006H46.8016V40.0148H29.0156Z" fill="#current"/>
<path d="M50.7373 40.0148V0.536133H68.4195V6.48235H59.4307V16.27H66.2641V22.3122H59.4307V34.1006H68.5233V40.0148H50.7373Z" fill="#current"/>
<path d="M81.4713 10.7721C80.9693 10.792 80.4725 10.664 80.0423 10.4039C79.6628 10.156 79.3633 9.80289 79.1802 9.38755C78.976 8.91096 78.8597 8.4012 78.8369 7.88299L80.0663 7.54687C80.0897 7.8897 80.1431 8.2298 80.2259 8.56325C80.3007 8.86024 80.4459 9.13476 80.649 9.36354C80.754 9.46714 80.8789 9.54824 81.0162 9.60189C81.1534 9.65555 81.3001 9.68065 81.4473 9.67566C81.5943 9.68517 81.7417 9.66294 81.8794 9.61047C82.0171 9.55801 82.142 9.47653 82.2456 9.37155C82.4452 9.12963 82.5451 8.82049 82.525 8.50723C82.5471 8.1269 82.4433 7.7499 82.2297 7.43483C81.9912 7.14173 81.7237 6.87359 81.4314 6.63453L79.8348 5.12997C79.5313 4.87295 79.2863 4.55365 79.1163 4.19362C78.9461 3.79729 78.8644 3.36847 78.8768 2.93715C78.8589 2.62598 78.9057 2.31447 79.0143 2.0224C79.1229 1.73033 79.2908 1.46407 79.5075 1.24052C79.968 0.825523 80.5734 0.609781 81.1919 0.640299C81.5444 0.634211 81.8953 0.688337 82.2297 0.800358C82.5142 0.894571 82.7717 1.0566 82.9801 1.27253C83.1904 1.50532 83.3531 1.77722 83.459 2.07283C83.5807 2.43882 83.661 2.81732 83.6985 3.20125L82.517 3.52137C82.497 3.21877 82.4489 2.91869 82.3734 2.62504C82.3145 2.3703 82.181 2.139 81.9902 1.96079C81.7602 1.7868 81.48 1.69268 81.1919 1.69268C80.9038 1.69268 80.6235 1.7868 80.3936 1.96079C80.2942 2.06775 80.2174 2.19383 80.168 2.33139C80.1186 2.46896 80.0976 2.61514 80.1062 2.76109C80.097 3.01862 80.1519 3.2744 80.2659 3.50536C80.3886 3.73697 80.557 3.94117 80.7608 4.10559L82.4292 5.60215C82.8163 5.93912 83.1501 6.33309 83.4191 6.77058C83.7095 7.25275 83.8563 7.80811 83.8422 8.37118C83.8566 8.81237 83.7518 9.24927 83.5389 9.63565C83.3566 9.97499 83.0791 10.2533 82.7406 10.4359C82.3542 10.6576 81.9165 10.7735 81.4713 10.7721Z" fill="#current"/>
<path d="M85 10.668V0.728271H86.3571V10.668H85Z" fill="#current"/>
<path d="M90.3008 10.772C89.7988 10.7929 89.3017 10.6648 88.8719 10.4039C88.4882 10.1607 88.1875 9.80621 88.0097 9.38752C87.8016 8.9122 87.6852 8.4017 87.6665 7.88296L88.8878 7.54683C88.9099 7.89036 88.9661 8.23084 89.0555 8.56321C89.1269 8.86151 89.2724 9.13683 89.4786 9.36351C89.583 9.46788 89.7078 9.54949 89.8452 9.6032C89.9826 9.65691 90.1295 9.68157 90.2769 9.67562C90.4239 9.68461 90.571 9.66214 90.7087 9.6097C90.8463 9.55727 90.9712 9.47607 91.0752 9.37151C91.2718 9.12841 91.3689 8.8194 91.3466 8.50719C91.364 8.12372 91.2576 7.74484 91.0432 7.42679C90.8044 7.13402 90.537 6.86592 90.245 6.62649L88.6164 5.12993C88.3106 4.87322 88.0629 4.55398 87.89 4.19358C87.7263 3.79551 87.6475 3.36754 87.6585 2.93712C87.6395 2.62652 87.6851 2.31535 87.7923 2.02331C87.8994 1.73127 88.0659 1.46471 88.2811 1.24049C88.515 1.02906 88.7888 0.866959 89.0864 0.763841C89.384 0.660724 89.6993 0.618697 90.0134 0.640263C90.3654 0.63326 90.716 0.684638 91.0512 0.79232C91.3325 0.888532 91.587 1.05037 91.7936 1.2645C92.004 1.49728 92.1667 1.76919 92.2726 2.06479C92.4018 2.42867 92.4824 2.80812 92.5121 3.19321L91.3386 3.51333C91.32 3.21 91.2691 2.90952 91.1869 2.617C91.1281 2.36226 90.9946 2.13096 90.8038 1.95275C90.5801 1.76828 90.2944 1.67664 90.0055 1.69666C89.8606 1.68832 89.7154 1.70878 89.5784 1.75685C89.4414 1.80492 89.3153 1.87965 89.2072 1.97676C89.1077 2.08372 89.031 2.2098 88.9816 2.34736C88.9322 2.48493 88.9112 2.63111 88.9198 2.77706C88.91 3.03376 88.9621 3.28904 89.0715 3.52134C89.1968 3.75118 89.3648 3.95491 89.5664 4.12156L91.2508 5.60211C91.6401 5.9369 91.9742 6.33123 92.2407 6.77054C92.5339 7.25186 92.6835 7.80729 92.6718 8.37114C92.6823 8.81193 92.5778 9.24784 92.3684 9.63561C92.1822 9.97197 91.9056 10.2492 91.5701 10.4359C91.1833 10.6565 90.7459 10.7724 90.3008 10.772Z" fill="#current"/>
<path d="M94.8346 10.668V1.76066H93.1582V0.728271H97.8522V1.76066H96.2556V10.668H94.8346Z" fill="#current"/>
<path d="M98.8027 10.668V0.728271H102.651V1.76066H100.184V5.04188H102.187V6.02624H100.192V9.6676H102.682V10.668H98.8027Z" fill="#current"/>
<path d="M103.784 10.668L103.944 0.728271H105.301L107.057 8.80328L108.813 0.728271H110.171L110.354 10.668H109.245L109.133 3.46529L107.456 10.668H106.658L104.99 3.46529L104.878 10.668H103.784Z" fill="#current"/>
<path d="M111.328 10.668L113.428 0.728271H114.769L116.884 10.668H115.575L115.12 8.16304H113.1L112.621 10.668H111.328ZM113.284 7.20268H114.96L114.162 2.72101L113.284 7.20268Z" fill="#current"/>
<path d="M120.691 10.668V0.728323H122.839C123.44 0.700924 124.039 0.816086 124.587 1.06445C125.006 1.27652 125.333 1.63533 125.505 2.07282C125.701 2.61065 125.793 3.18104 125.777 3.75345V7.41081C125.793 8.01718 125.701 8.62163 125.505 9.19547C125.342 9.6535 125.026 10.0409 124.611 10.2919C124.102 10.5656 123.528 10.6956 122.951 10.668H120.691ZM122.072 9.66765H122.871C123.253 9.70462 123.635 9.60234 123.948 9.37954C124.175 9.14665 124.311 8.84 124.332 8.51522C124.384 8.06366 124.408 7.60927 124.403 7.15471V3.95352C124.413 3.53221 124.378 3.11105 124.3 2.69706C124.255 2.41848 124.103 2.16858 123.877 2.0008C123.555 1.83332 123.193 1.75853 122.831 1.78472H122.088L122.072 9.66765Z" fill="#current"/>
<path d="M127.142 10.668V0.728271H130.981V1.76066H128.531V5.04188H130.526V6.02624H128.531V9.6676H131.013V10.668H127.142Z" fill="#current"/>
<path d="M81.4958 25.5135C80.9712 25.5399 80.4517 25.3999 80.011 25.1134C79.6243 24.8256 79.3436 24.4175 79.2127 23.9529C79.031 23.3623 78.9448 22.7462 78.9572 22.1283V18.799C78.9455 18.1722 79.0235 17.547 79.1887 16.9423C79.3045 16.4686 79.5883 16.0533 79.987 15.7739C80.4658 15.4791 81.0225 15.3368 81.5836 15.3657C82.102 15.3434 82.6177 15.4507 83.0844 15.6779C83.4555 15.8932 83.7383 16.2335 83.8827 16.6382C84.0684 17.1507 84.1551 17.6939 84.1382 18.2388V18.6069H82.8449V18.2948C82.8505 17.9407 82.8211 17.5868 82.7571 17.2384C82.7184 16.9971 82.5936 16.7782 82.4059 16.6222C82.1673 16.4733 81.888 16.4033 81.6076 16.4221C81.4488 16.4082 81.2888 16.4257 81.1367 16.4738C80.9847 16.5219 80.8436 16.5995 80.7215 16.7022C80.5195 16.922 80.3984 17.2044 80.3782 17.5025C80.3275 17.8657 80.3035 18.2322 80.3064 18.5989V22.2803C80.3023 22.6802 80.337 23.0796 80.4101 23.4728C80.4591 23.7486 80.5998 23.9996 80.8093 24.185C81.0446 24.3442 81.3238 24.4254 81.6076 24.4171C81.8952 24.4268 82.1773 24.3363 82.4059 24.161C82.616 23.9564 82.7558 23.6902 82.805 23.4007C82.8893 22.9875 82.9268 22.566 82.9168 22.1443V21.448H81.7513V20.4716H84.2659V25.3935H83.3957L83.26 24.249C83.1426 24.6017 82.9298 24.9148 82.6454 25.1534C82.3185 25.4093 81.9099 25.5373 81.4958 25.5135Z" fill="#current"/>
<path d="M86.0137 25.3936V15.4539H89.8535V16.4782H87.3947V19.7675H89.4144V20.7518H87.4187V24.3932H89.9014V25.3936H86.0137Z" fill="#current"/>
<path d="M93.6619 25.4976C93.1624 25.5178 92.6681 25.3897 92.2409 25.1295C91.8569 24.8845 91.5541 24.5307 91.3708 24.1131C91.1703 23.6353 91.0541 23.1262 91.0275 22.6085L92.2569 22.2724C92.279 22.6159 92.3351 22.9564 92.4245 23.2888C92.4932 23.5864 92.6361 23.8617 92.8396 24.0891C92.9446 24.1927 93.0695 24.2738 93.2068 24.3274C93.344 24.3811 93.4907 24.4062 93.6379 24.4012C93.7848 24.4091 93.9317 24.3862 94.0692 24.3338C94.2067 24.2815 94.3317 24.2008 94.4362 24.0971C94.6357 23.8551 94.7357 23.546 94.7156 23.2327C94.7349 22.8479 94.6253 22.4676 94.4043 22.1523C94.1681 21.8572 93.9004 21.5889 93.606 21.352L91.9376 19.8795C91.634 19.6225 91.389 19.3032 91.2191 18.9431C91.0516 18.5462 90.9726 18.1174 90.9876 17.6867C90.9686 17.3761 91.0142 17.0649 91.1214 16.7729C91.2285 16.4808 91.395 16.2143 91.6103 15.9901C91.8497 15.7662 92.1331 15.595 92.4425 15.4875C92.7518 15.38 93.0802 15.3385 93.4064 15.3658C93.7558 15.3581 94.1039 15.4095 94.4362 15.5179C94.7208 15.6121 94.9783 15.7741 95.1866 15.9901C95.3969 16.2228 95.5597 16.4947 95.6656 16.7903C95.7948 17.1542 95.8753 17.5337 95.9051 17.9188L94.7236 18.2389C94.7036 17.9363 94.6555 17.6362 94.5799 17.3426C94.521 17.0878 94.3876 16.8565 94.1967 16.6783C93.9668 16.5043 93.6865 16.4102 93.3984 16.4102C93.1103 16.4102 92.8301 16.5043 92.6001 16.6783C92.5007 16.7853 92.424 16.9113 92.3746 17.0489C92.3252 17.1865 92.3041 17.3327 92.3127 17.4786C92.3035 17.7361 92.3584 17.9919 92.4724 18.2229C92.5952 18.4545 92.7635 18.6587 92.9673 18.8231L94.6438 20.2957C95.0291 20.6374 95.3626 21.0337 95.6337 21.4721C95.9273 21.9532 96.0769 22.5088 96.0647 23.0727C96.0778 23.5173 95.9702 23.9571 95.7534 24.3452C95.5712 24.6845 95.2936 24.9628 94.9551 25.1455C94.5633 25.3768 94.1166 25.4985 93.6619 25.4976Z" fill="#current"/>
<path d="M98.5309 25.3936V16.4782H96.8545V15.4539H101.548V16.4782H99.9519V25.3936H98.5309Z" fill="#current"/>
<path d="M102.268 25.3934L104.375 15.4537H105.708L107.824 25.3934H106.514L106.059 22.8885H104.04L103.569 25.3934H102.268ZM105.98 13.9572C105.767 13.9604 105.557 13.9051 105.373 13.7971C105.197 13.7011 105.03 13.5971 104.878 13.501C104.727 13.4051 104.553 13.3525 104.375 13.349C104.318 13.3442 104.261 13.3518 104.207 13.3711C104.154 13.3905 104.105 13.4211 104.064 13.461C103.981 13.5741 103.944 13.714 103.96 13.8531H103.21C103.207 13.6281 103.239 13.404 103.305 13.1889C103.354 13.0012 103.46 12.8334 103.609 12.7087C103.776 12.5823 103.982 12.5198 104.191 12.5327C104.387 12.5308 104.58 12.5805 104.75 12.6767L105.245 12.9728C105.396 13.0663 105.57 13.1161 105.748 13.1169C105.803 13.122 105.859 13.1154 105.911 13.0974C105.963 13.0795 106.011 13.0507 106.051 13.0128C106.127 12.8907 106.16 12.7475 106.147 12.6047H106.882C106.884 12.8308 106.86 13.0564 106.81 13.2769C106.772 13.4663 106.677 13.6394 106.538 13.7731C106.382 13.9035 106.182 13.9694 105.98 13.9572ZM104.223 21.8961H105.876L105.078 17.4145L104.223 21.8961Z" fill="#current"/>
<path d="M111.647 25.4975C111.088 25.5254 110.533 25.3891 110.05 25.1054C109.645 24.8399 109.342 24.4451 109.188 23.9849C109.009 23.4322 108.923 22.8534 108.933 22.2723V18.5029C108.92 17.9314 109.009 17.3623 109.196 16.8223C109.352 16.3765 109.653 15.9961 110.05 15.7419C110.538 15.4711 111.09 15.3409 111.647 15.3657C112.204 15.3379 112.757 15.4683 113.244 15.7419C113.63 15.9973 113.924 16.3705 114.082 16.8063C114.269 17.3463 114.358 17.9154 114.345 18.4869V22.2723C114.362 22.8623 114.273 23.4506 114.082 24.0089C113.928 24.4664 113.631 24.862 113.236 25.1374C112.753 25.4116 112.2 25.5368 111.647 25.4975ZM111.647 24.4091C111.93 24.4237 112.211 24.345 112.445 24.185C112.638 24.0193 112.77 23.7941 112.821 23.5448C112.896 23.2277 112.931 22.9023 112.924 22.5764V18.2228C112.931 17.9022 112.896 17.5821 112.821 17.2704C112.769 17.0304 112.637 16.8155 112.445 16.6622C112.208 16.5087 111.929 16.4332 111.647 16.4461C111.365 16.4347 111.087 16.5101 110.849 16.6622C110.648 16.8095 110.508 17.0262 110.458 17.2704C110.389 17.5831 110.357 17.9027 110.362 18.2228V22.5764C110.357 22.9018 110.389 23.2267 110.458 23.5448C110.507 23.7982 110.646 24.0253 110.849 24.185C111.084 24.3434 111.364 24.4219 111.647 24.4091Z" fill="#current"/>
<path d="M119.175 25.3934V15.4537H121.346C121.947 15.4263 122.546 15.5414 123.094 15.7898C123.506 16.0084 123.824 16.3697 123.989 16.8062C124.185 17.344 124.277 17.9144 124.26 18.4868V22.1442C124.277 22.7505 124.185 23.355 123.989 23.9288C123.826 24.3868 123.51 24.7743 123.094 25.0252C122.585 25.2989 122.011 25.4289 121.434 25.4014L119.175 25.3934ZM120.548 24.393H121.346C121.728 24.43 122.111 24.3277 122.424 24.1049C122.651 23.872 122.787 23.5653 122.807 23.2406C122.859 22.789 122.883 22.3346 122.879 21.8801V18.6789C122.889 18.2575 122.854 17.8363 122.775 17.4224C122.754 17.284 122.706 17.1512 122.633 17.0317C122.561 16.9122 122.465 16.8083 122.352 16.7261C122.031 16.5555 121.669 16.4779 121.306 16.5021H120.548V24.393Z" fill="#current"/>
<path d="M125.418 25.3936L127.517 15.4539H128.851L130.974 25.3936H129.665L129.21 22.8886H127.19L126.711 25.3936H125.418ZM127.374 21.8963H129.026L128.228 17.4146L127.374 21.8963Z" fill="#current"/>
<path d="M79.1328 40.1189V30.1792H81.5916C82.0881 30.1535 82.5821 30.2642 83.0205 30.4993C83.3865 30.7133 83.6683 31.0466 83.8188 31.4437C83.9962 31.9164 84.0803 32.4193 84.0663 32.9242C84.0793 33.3924 83.9865 33.8575 83.7948 34.2847C83.6253 34.6555 83.3467 34.9654 82.9966 35.173C82.5841 35.4005 82.1178 35.5111 81.6474 35.4932H80.5538V40.1189H79.1328ZM80.5139 34.5168H81.1525C81.4716 34.5303 81.7905 34.487 82.0945 34.3888C82.2048 34.3459 82.3054 34.2813 82.3904 34.1988C82.4754 34.1164 82.5431 34.0177 82.5894 33.9086C82.6985 33.6062 82.7473 33.2854 82.7331 32.9642C82.7458 32.5958 82.711 32.2273 82.6293 31.8678C82.6008 31.7534 82.5473 31.6467 82.4728 31.5553C82.3982 31.464 82.3045 31.3904 82.1983 31.3396C81.8671 31.2269 81.5177 31.178 81.1685 31.1956H80.5139V34.5168Z" fill="#current"/>
<path d="M85.3516 40.1189V30.1792H87.3473C87.8913 30.1665 88.4328 30.2561 88.9439 30.4433C89.3563 30.5976 89.6993 30.896 89.9098 31.2836C90.1353 31.7604 90.2421 32.2849 90.2212 32.8121C90.2249 33.1652 90.1847 33.5174 90.1014 33.8605C90.0286 34.1519 89.8953 34.4246 89.7102 34.6608C89.5205 34.8799 89.2749 35.0431 88.9998 35.133L90.4048 40.1189H89.0716L87.8183 35.4531H86.7406V40.1189H85.3516ZM86.7326 34.4607H87.2595C87.5856 34.4731 87.911 34.4214 88.2174 34.3087C88.3355 34.2644 88.4436 34.1971 88.5354 34.1105C88.6272 34.0239 88.701 33.9199 88.7523 33.8045C88.8858 33.4915 88.9459 33.152 88.9279 32.8121C88.9673 32.3691 88.8547 31.9258 88.6086 31.5557C88.4378 31.4053 88.2369 31.2932 88.0193 31.227C87.8018 31.1608 87.5727 31.1418 87.3473 31.1715H86.7326V34.4607Z" fill="#current"/>
<path d="M94.5795 40.2229C94.0205 40.2508 93.4656 40.1145 92.9829 39.8307C92.5799 39.5649 92.2788 39.1699 92.1287 38.7103C91.9496 38.1575 91.8633 37.5788 91.8733 36.9977V33.2283C91.8606 32.6568 91.9498 32.0877 92.1367 31.5476C92.2929 31.1019 92.5937 30.7215 92.9909 30.4672C93.4869 30.2198 94.0334 30.0911 94.5875 30.0911C95.1415 30.0911 95.688 30.2198 96.184 30.4672C96.5758 30.7255 96.8729 31.1048 97.0302 31.5476C97.2171 32.0877 97.3063 32.6568 97.2937 33.2283V37.0137C97.3048 37.5876 97.2156 38.1591 97.0302 38.7023C96.8763 39.1597 96.5796 39.5554 96.184 39.8307C95.6995 40.1173 95.1412 40.2538 94.5795 40.2229ZM94.5795 39.1345C94.863 39.1502 95.1437 39.0714 95.3778 38.9104C95.5752 38.7476 95.7106 38.5214 95.7609 38.2701C95.8293 37.952 95.8614 37.6272 95.8567 37.3018V32.9482C95.8734 32.6349 95.8546 32.3208 95.8009 32.0118C95.75 31.7696 95.614 31.5537 95.4177 31.4036C95.1809 31.2491 94.9015 31.1734 94.6194 31.1875C94.3375 31.1761 94.0589 31.2515 93.8211 31.4036C93.6248 31.5537 93.4888 31.7696 93.4379 32.0118C93.3695 32.3245 93.3374 32.6441 93.3421 32.9642V37.3178C93.3374 37.6432 93.3696 37.968 93.4379 38.2861C93.4882 38.5374 93.6236 38.7636 93.8211 38.9264C94.0471 39.0711 94.3115 39.1436 94.5795 39.1345Z" fill="#current"/>
<path d="M98.9941 40.1189V30.1792H101.15C101.748 30.151 102.345 30.2662 102.89 30.5154C103.299 30.7332 103.616 31.091 103.784 31.5237C103.98 32.0616 104.072 32.632 104.055 33.2044V36.8617C104.072 37.4681 103.98 38.0725 103.784 38.6464C103.618 39.1028 103.303 39.4893 102.89 39.7428C102.38 40.0165 101.807 40.1465 101.229 40.1189H98.9941ZM100.375 39.1186H101.173C101.553 39.1536 101.932 39.0514 102.243 38.8305C102.472 38.5984 102.611 38.2918 102.634 37.9661C102.679 37.5141 102.701 37.0599 102.698 36.6056V33.4044C102.706 32.9835 102.674 32.5628 102.602 32.148C102.582 32.0086 102.533 31.8749 102.459 31.7551C102.385 31.6354 102.287 31.5321 102.171 31.4517C101.853 31.2809 101.494 31.2033 101.134 31.2276H100.383L100.375 39.1186Z" fill="#current"/>
<path d="M108.343 40.2229C107.761 40.2627 107.181 40.114 106.69 39.7988C106.295 39.4988 106.013 39.0725 105.892 38.5903C105.746 37.9934 105.676 37.3802 105.684 36.7656V30.1792H107.009V36.8137C107.008 37.2022 107.037 37.5902 107.097 37.9741C107.132 38.2865 107.263 38.5802 107.472 38.8144C107.587 38.9219 107.723 39.0044 107.872 39.0567C108.02 39.1091 108.178 39.1301 108.335 39.1185C108.492 39.1316 108.65 39.1113 108.798 39.0589C108.947 39.0065 109.083 38.9231 109.197 38.8144C109.398 38.5762 109.526 38.2841 109.564 37.9741C109.628 37.5907 109.657 37.2023 109.652 36.8137V30.1792H110.969V36.7656C110.981 37.3804 110.911 37.9941 110.761 38.5903C110.642 39.0733 110.36 39.5001 109.963 39.7988C109.482 40.1094 108.914 40.258 108.343 40.2229Z" fill="#current"/>
<path d="M115.255 40.223C114.676 40.2592 114.102 40.1046 113.619 39.7829C113.234 39.4828 112.954 39.0681 112.82 38.5984C112.664 38.0549 112.589 37.4913 112.597 36.9258V33.4125C112.586 32.8205 112.661 32.2301 112.82 31.6598C112.951 31.1952 113.232 30.7872 113.619 30.4994C114.11 30.2 114.681 30.0577 115.255 30.0913C115.77 30.0639 116.282 30.1832 116.732 30.4354C117.103 30.6619 117.385 31.0095 117.53 31.4197C117.701 31.9108 117.782 32.4285 117.77 32.9483V33.7486H116.46V33.0524C116.46 32.7261 116.442 32.4001 116.405 32.076C116.384 31.8283 116.276 31.5959 116.101 31.4197C115.872 31.2487 115.588 31.1663 115.303 31.1877C114.997 31.1606 114.693 31.2491 114.449 31.4358C114.259 31.6298 114.136 31.8793 114.098 32.148C114.043 32.5029 114.017 32.8614 114.018 33.2204V37.1659C114.009 37.5646 114.052 37.9627 114.145 38.3503C114.199 38.5979 114.341 38.8172 114.545 38.9666C114.775 39.0977 115.038 39.1614 115.303 39.1506C115.591 39.1705 115.875 39.082 116.101 38.9025C116.274 38.7089 116.38 38.4649 116.405 38.2063C116.449 37.864 116.47 37.5191 116.468 37.1739V36.4376H117.778V37.1739C117.788 37.7159 117.713 38.2562 117.554 38.7745C117.43 39.2098 117.162 39.5903 116.796 39.8549C116.333 40.1366 115.794 40.2654 115.255 40.223ZM115.319 43.0001C115.183 43.0119 115.047 43.0119 114.912 43.0001L114.497 42.92V42.2558C114.6 42.2894 114.707 42.3109 114.816 42.3198H115.119C115.304 42.3249 115.487 42.2865 115.654 42.2078C115.722 42.1746 115.779 42.122 115.818 42.0565C115.856 41.9909 115.874 41.9155 115.87 41.8396C115.875 41.71 115.829 41.5836 115.742 41.4875C115.643 41.3912 115.523 41.3199 115.391 41.2794C115.206 41.2185 115.017 41.1756 114.824 41.1514V40.119H115.487V40.8152C115.837 40.8007 116.182 40.9019 116.468 41.1033C116.595 41.1923 116.697 41.313 116.762 41.4534C116.828 41.5938 116.856 41.749 116.844 41.9036C116.855 42.1365 116.785 42.366 116.644 42.5519C116.498 42.7248 116.307 42.8548 116.093 42.928C115.841 42.9942 115.579 43.0185 115.319 43.0001Z" fill="#current"/>
<path d="M118.88 40.119L120.987 30.1793H122.321L124.436 40.119H123.127L122.672 37.6141H120.652L120.173 40.119H118.88ZM122.584 28.6828C122.371 28.6848 122.162 28.6295 121.977 28.5227L121.482 28.2266C121.335 28.1298 121.163 28.077 120.987 28.0745C120.929 28.0707 120.871 28.0786 120.816 28.0978C120.761 28.1171 120.711 28.1473 120.668 28.1866C120.59 28.3015 120.553 28.44 120.564 28.5787H119.822C119.821 28.3543 119.85 28.1309 119.91 27.9145C119.965 27.7276 120.073 27.5608 120.221 27.4343C120.388 27.3078 120.595 27.2454 120.804 27.2582C120.997 27.2567 121.187 27.3064 121.355 27.4023L121.85 27.6984C122.002 27.79 122.175 27.8397 122.352 27.8425C122.409 27.8477 122.465 27.8412 122.519 27.8233C122.573 27.8054 122.622 27.7765 122.664 27.7384C122.739 27.6163 122.772 27.4731 122.76 27.3303H123.494C123.496 27.5564 123.472 27.782 123.422 28.0025C123.381 28.1907 123.287 28.3629 123.151 28.4987C122.993 28.6311 122.79 28.697 122.584 28.6828ZM120.836 36.6217H122.488L121.69 32.1401L120.836 36.6217Z" fill="#current"/>
<path d="M128.267 40.2229C127.708 40.2508 127.153 40.1145 126.671 39.8308C126.265 39.5674 125.964 39.1715 125.816 38.7104C125.63 38.159 125.541 37.5796 125.553 36.9977V33.2283C125.54 32.6569 125.629 32.0877 125.816 31.5477C125.972 31.0995 126.277 30.7183 126.679 30.4673C127.165 30.1941 127.718 30.0638 128.275 30.0912C128.832 30.062 129.386 30.1925 129.872 30.4673C130.266 30.7251 130.565 31.1043 130.726 31.5477C130.913 32.0877 131.002 32.6569 130.989 33.2283V37.0137C131 37.5877 130.911 38.1592 130.726 38.7024C130.569 39.1604 130.269 39.5559 129.872 39.8308C129.388 40.1201 128.829 40.2568 128.267 40.2229ZM128.267 39.1345C128.551 39.1503 128.831 39.0715 129.065 38.9104C129.26 38.7452 129.395 38.5201 129.449 38.2702C129.517 37.9521 129.549 37.6272 129.544 37.3018V32.9482C129.549 32.6281 129.517 32.3086 129.449 31.9959C129.395 31.7549 129.259 31.5401 129.065 31.3876C128.829 31.2331 128.549 31.1575 128.267 31.1716C127.985 31.1602 127.707 31.2356 127.469 31.3876C127.273 31.5378 127.137 31.7536 127.086 31.9959C127.01 32.3075 126.975 32.6276 126.982 32.9482V37.3018C126.976 37.6277 127.01 37.9531 127.086 38.2702C127.136 38.5215 127.271 38.7477 127.469 38.9104C127.704 39.0688 127.984 39.1473 128.267 39.1345Z" fill="#current"/>
</svg>
