<svg width="16" height="12" viewBox="0 0 16 12" fill="none" xmlns="http://www.w3.org/2000/svg">
<path d="M1.51579 12C1.09474 12 0.736842 11.86 0.442105 11.58C0.147369 11.3 0 10.96 0 10.56V1.44C0 1.04 0.147369 0.7 0.442105 0.42C0.736842 0.14 1.09474 0 1.51579 0H14.4842C14.9053 0 15.2632 0.14 15.5579 0.42C15.8526 0.7 16 1.04 16 1.44V10.56C16 10.96 15.8526 11.3 15.5579 11.58C15.2632 11.86 14.9053 12 14.4842 12H1.51579ZM8 6.44L1.26316 2.36V10.56C1.26316 10.6267 1.28786 10.6835 1.33726 10.7304C1.38611 10.7768 1.44561 10.8 1.51579 10.8H14.4842C14.5544 10.8 14.6142 10.7768 14.6636 10.7304C14.7124 10.6835 14.7368 10.6267 14.7368 10.56V2.36L8 6.44ZM8 5.2L14.6105 1.2H1.38947L8 5.2ZM1.26316 10.56C1.26316 10.6267 1.28786 10.6835 1.33726 10.7304C1.38611 10.7768 1.44561 10.8 1.51579 10.8H1.26316C1.26316 10.8 1.26316 10.7768 1.26316 10.7304C1.26316 10.6835 1.26316 10.6267 1.26316 10.56Z" fill="#878A8C"/>
</svg>
