<svg width="16" height="16" viewBox="0 0 16 16" fill="none" xmlns="http://www.w3.org/2000/svg">
<path d="M8 7.67123C6.96889 7.67123 6.08889 7.29205 5.36 6.5337C4.63111 5.77607 4.26667 4.87671 4.26667 3.83562C4.26667 2.77626 4.63111 1.87215 5.36 1.12329C6.08889 0.374429 6.96889 0 8 0C9.03111 0 9.91111 0.374429 10.64 1.12329C11.3689 1.87215 11.7333 2.77626 11.7333 3.83562C11.7333 4.87671 11.3689 5.77607 10.64 6.5337C9.91111 7.29205 9.03111 7.67123 8 7.67123ZM0 16V13.5616C0 13.032 0.142222 12.5388 0.426667 12.0822C0.711111 11.6256 1.09333 11.2694 1.57333 11.0137C2.62222 10.484 3.68462 10.0866 4.76053 9.82137C5.83573 9.55689 6.91556 9.42466 8 9.42466C9.08444 9.42466 10.1646 9.55689 11.2405 9.82137C12.3157 10.0866 13.3778 10.484 14.4267 11.0137C14.9067 11.2694 15.2889 11.6256 15.5733 12.0822C15.8578 12.5388 16 13.032 16 13.5616V16H0ZM1.6 14.3562H14.4V13.5616C14.4 13.3425 14.3378 13.1416 14.2133 12.9589C14.0889 12.7763 13.92 12.621 13.7067 12.4932C12.7822 12.0365 11.8446 11.6847 10.8939 11.4378C9.9424 11.1916 8.97778 11.0685 8 11.0685C7.02222 11.0685 6.0576 11.1916 5.10613 11.4378C4.15538 11.6847 3.21778 12.0365 2.29333 12.4932C2.08 12.621 1.91111 12.7763 1.78667 12.9589C1.66222 13.1416 1.6 13.3425 1.6 13.5616V14.3562ZM8 6.0274C8.58667 6.0274 9.08907 5.8126 9.5072 5.38301C9.92462 4.95416 10.1333 4.43836 10.1333 3.83562C10.1333 3.23288 9.92462 2.71671 9.5072 2.28712C9.08907 1.85827 8.58667 1.64384 8 1.64384C7.41333 1.64384 6.91129 1.85827 6.49387 2.28712C6.07573 2.71671 5.86667 3.23288 5.86667 3.83562C5.86667 4.43836 6.07573 4.95416 6.49387 5.38301C6.91129 5.8126 7.41333 6.0274 8 6.0274Z" fill="#878A8C"/>
</svg>
